<svg width="198" height="250" viewBox="0 0 198 250" fill="none" xmlns="http://www.w3.org/2000/svg">
<g filter="url(#filter0_d_1_23)">
<path d="M42.2592 14.2225C44.5473 7.35826 45.6913 3.92616 48.4149 1.96308C51.1385 0 54.7563 0 61.9918 0L136.008 0C143.244 0 146.861 0 149.585 1.96308C152.309 3.92616 153.453 7.35826 155.741 14.2225L161.4 31.2L36.6 31.2L42.2592 14.2225Z" fill="#525252"/>
<path opacity="0.5" d="M62.6 0L88.6 0L78.2 31.2H52.2L62.6 0Z" fill="white"/>
<g opacity="0.06">
<path d="M140.6 31.2H161.4L155.741 14.2225C153.453 7.35826 152.309 3.92616 149.585 1.96308C146.861 -5.62668e-06 143.244 -5.62668e-06 136.008 -5.62668e-06H130.2L140.6 31.2Z" fill="black" style="mix-blend-mode:soft-light"/>
</g>
<rect x="21" y="31.2" width="156" height="20.8" rx="5.2" fill="#525252"/>
<path opacity="0.5" d="M41.8 31.2H67.8V52H41.8V31.2Z" fill="white"/>
<g opacity="0.06">
<path d="M156.2 31.2H166.6C171.503 31.2 173.954 31.2 175.477 32.723C175.477 32.723 175.477 32.723 175.477 32.723C177 34.2461 177 36.6974 177 41.6V41.6C177 46.5026 177 48.9539 175.477 50.477C175.477 50.477 175.477 50.477 175.477 50.477C173.954 52 171.503 52 166.6 52H156.2V31.2Z" fill="black" style="mix-blend-mode:soft-light"/>
</g>
<path d="M36.6 52H161.4L147.673 189.27C146.783 198.171 146.338 202.622 143.367 205.311C140.395 208 135.922 208 126.976 208H71.0237C62.0777 208 57.6046 208 54.6334 205.311C51.6622 202.622 51.2171 198.171 50.327 189.27L36.6 52Z" fill="#202020"/>
<path opacity="0.5" d="M52.2 52H78.2L93.8 208H67.8L52.2 52Z" fill="#CACACA"/>
<g opacity="0.06">
<path d="M161.4 52H140.6L125 208H126.976C135.922 208 140.395 208 143.367 205.311C146.338 202.622 146.783 198.171 147.673 189.27L161.4 52Z" fill="black" style="mix-blend-mode:soft-light"/>
</g>
<g opacity="0.06">
<path fill-rule="evenodd" clip-rule="evenodd" d="M161.4 52H36.6L37.12 57.2H160.88L161.4 52Z" fill="black" style="mix-blend-mode:soft-light"/>
</g>
<path fill-rule="evenodd" clip-rule="evenodd" d="M47 156L48.04 166.4H149.96L151 156H47Z" fill="#D27F55" fill-opacity="0.3"/>
<path fill-rule="evenodd" clip-rule="evenodd" d="M152.526 67.6C157.887 67.6 160.568 67.6 162.116 69.3078C163.664 71.0155 163.401 73.6833 162.876 79.0187L155.711 151.819C155.272 156.277 155.053 158.506 153.566 159.853C152.08 161.2 149.84 161.2 145.361 161.2H52.6392C48.1597 161.2 45.92 161.2 44.4337 159.853C42.9474 158.506 42.728 156.277 42.2893 151.819L35.1239 79.0187C34.5988 73.6833 34.3362 71.0155 35.8841 69.3078C37.4321 67.6 40.1127 67.6 45.4739 67.6H152.526Z" fill="#E59A61"/>
<g opacity="0.4">
<path fill-rule="evenodd" clip-rule="evenodd" d="M69.36 67.6L78.72 161.2H52.72L43.36 67.6H69.36Z" fill="white" style="mix-blend-mode:soft-light"/>
</g>
<path style="mix-blend-mode:soft-light" fill-rule="evenodd" clip-rule="evenodd" d="M145.28 161.2H145.361C149.84 161.2 152.08 161.2 153.566 159.853C155.053 158.506 155.272 156.277 155.711 151.819L162.876 79.0187C163.401 73.6833 163.664 71.0155 162.116 69.3078C160.786 67.8409 158.621 67.634 154.64 67.6048L145.28 161.2Z" fill="black" fill-opacity="0.4"/>
<path fill-rule="evenodd" clip-rule="evenodd" d="M54.8 93.6C54.8 92.1641 55.9641 91 57.4 91C58.8359 91 60 92.1641 60 93.6V135.2C60 136.636 58.8359 137.8 57.4 137.8C55.9641 137.8 54.8 136.636 54.8 135.2V93.6ZM65.2 93.6C65.2 92.1641 66.3641 91 67.8 91C69.2359 91 70.4 92.1641 70.4 93.6V135.2C70.4 136.636 69.2359 137.8 67.8 137.8C66.3641 137.8 65.2 136.636 65.2 135.2V93.6ZM78.2 91C76.7641 91 75.6 92.1641 75.6 93.6V135.2C75.6 136.636 76.7641 137.8 78.2 137.8C79.6359 137.8 80.8 136.636 80.8 135.2V93.6C80.8 92.1641 79.6359 91 78.2 91ZM86 93.6C86 92.1641 87.1641 91 88.6 91C90.0359 91 91.2 92.1641 91.2 93.6V135.2C91.2 136.636 90.0359 137.8 88.6 137.8C87.1641 137.8 86 136.636 86 135.2V93.6ZM99 91C97.5641 91 96.4 92.1641 96.4 93.6V135.2C96.4 136.636 97.5641 137.8 99 137.8C100.436 137.8 101.6 136.636 101.6 135.2V93.6C101.6 92.1641 100.436 91 99 91ZM106.8 93.6C106.8 92.1641 107.964 91 109.4 91C110.836 91 112 92.1641 112 93.6V135.2C112 136.636 110.836 137.8 109.4 137.8C107.964 137.8 106.8 136.636 106.8 135.2V93.6ZM119.8 91C118.364 91 117.2 92.1641 117.2 93.6V135.2C117.2 136.636 118.364 137.8 119.8 137.8C121.236 137.8 122.4 136.636 122.4 135.2V93.6C122.4 92.1641 121.236 91 119.8 91ZM127.6 93.6C127.6 92.1641 128.764 91 130.2 91C131.636 91 132.8 92.1641 132.8 93.6V135.2C132.8 136.636 131.636 137.8 130.2 137.8C128.764 137.8 127.6 136.636 127.6 135.2V93.6ZM140.6 91C139.164 91 138 92.1641 138 93.6V135.2C138 136.636 139.164 137.8 140.6 137.8C142.036 137.8 143.2 136.636 143.2 135.2V93.6C143.2 92.1641 142.036 91 140.6 91Z" fill="#AB604B" style="mix-blend-mode:darken"/>
</g>
<defs>
<filter id="filter0_d_1_23" x="0.200008" y="-7.62939e-06" width="197.6" height="249.6" filterUnits="userSpaceOnUse" color-interpolation-filters="sRGB">
<feFlood flood-opacity="0" result="BackgroundImageFix"/>
<feColorMatrix in="SourceAlpha" type="matrix" values="0 0 0 0 0 0 0 0 0 0 0 0 0 0 0 0 0 0 127 0" result="hardAlpha"/>
<feOffset dy="20.8"/>
<feGaussianBlur stdDeviation="10.4"/>
<feColorMatrix type="matrix" values="0 0 0 0 0 0 0 0 0 0 0 0 0 0 0 0 0 0 0.12 0"/>
<feBlend mode="darken" in2="BackgroundImageFix" result="effect1_dropShadow_1_23"/>
<feBlend mode="normal" in="SourceGraphic" in2="effect1_dropShadow_1_23" result="shape"/>
</filter>
</defs>
</svg>
